PathFileType  4	(X/Y/Z) C:\Users\antoi\Documents\MyRepositories\mobilecap\ResultsAnalysis
DataRate	CameraRate	NumFrames	NumMarkers	Units	OrigDataRate	OrigDataStartFrame	OrigNumFrames
100.0	100.0	4	51	mm	100.0	116	231
Frame#	Time	r_knee			r_shank_antsup			r_ankle			r_calc			r_5meta			r_toe			L_knee			L_shank_antsup			L_ankle			L_calc			L_5meta			L_toe			r_sh2			r_sh3			r_sh4			L_sh2			L_sh3			r_thigh1			r_thigh2			r_thigh3			r_thigh4			r_thigh5			L_thigh1			L_thigh2			L_thigh3			L_thigh4			r.ASIS			r.PSIS			L.ASIS			L.PSIS			C7			R_Shoulder			L_Shoulder			R_Sternum			L_Sternum			R_humerus			R_elbow_med			R_elbow_lat			R_forearm			R_wrist_radius			R_wrist_ulna			L_humerus			L_elbow_med			L_elbow_lat			L_forearm			L_wrist_radius			L_wrist_ulna			R_HJC			L_HJC			R_HJC_reg			L_HJC_reg			
		X1	Y1	Z1	X2	Y2	Z2	X3	Y3	Z3	X4	Y4	Z4	X5	Y5	Z5	X6	Y6	Z6	X7	Y7	Z7	X8	Y8	Z8	X9	Y9	Z9	X10	Y10	Z10	X11	Y11	Z11	X12	Y12	Z12	X13	Y13	Z13	X14	Y14	Z14	X15	Y15	Z15	X16	Y16	Z16	X17	Y17	Z17	X18	Y18	Z18	X19	Y19	Z19	X20	Y20	Z20	X21	Y21	Z21	X22	Y22	Z22	X23	Y23	Z23	X24	Y24	Z24	X25	Y25	Z25	X26	Y26	Z26	X27	Y27	Z27	X28	Y28	Z28	X29	Y29	Z29	X30	Y30	Z30	X31	Y31	Z31	X32	Y32	Z32	X33	Y33	Z33	X34	Y34	Z34	X35	Y35	Z35	X36	Y36	Z36	X37	Y37	Z37	X38	Y38	Z38	X39	Y39	Z39	X40	Y40	Z40	X41	Y41	Z41	X42	Y42	Z42	X43	Y43	Z43	X44	Y44	Z44	X45	Y45	Z45	X46	Y46	Z46	X47	Y47	Z47	X48	Y48	Z48	X49	Y49	Z49	X50	Y50	Z50	X51	Y51	Z51	

116	1.15000000	-331.56057	572.88693	-397.77817	-354.61239	521.00854	-370.35037	-300.09222	168.11413	-423.73043	-356.74108	151.36822	-481.79161	-192.28755	67.43379	-397.07261	-144.48894	91.16927	-443.79840	-307.38866	611.66684	-751.32027	-269.22037	534.40564	-769.53094	-318.92271	212.24149	-764.56708	-384.02077	185.29037	-716.53558	-211.52094	117.60939	-779.71100	-167.58834	134.93000	-726.43556	-340.34856	406.53778	-367.35958	-284.43092	533.91846	-401.18272	-268.04828	421.48832	-409.53374	-356.27627	544.96388	-780.68146	-356.26945	422.91038	-789.45866	-408.22590	858.82502	-376.61361	-360.93446	755.17937	-366.27790	-312.58243	754.40091	-396.12433	-360.41924	871.50837	-475.96445	-308.42063	774.04298	-460.14621	-414.24425	913.38313	-734.04473	-351.15371	788.46405	-758.87122	-513.97500	865.84609	-750.26964	-454.53029	736.83107	-740.13294	-400.00678	1013.72910	-437.53464	-594.75242	1070.57897	-594.90566	-417.32038	1012.35581	-664.38667	-585.21868	1064.85255	-498.54266	-372.05974	1508.66090	-573.31874	-326.96677	1475.83975	-428.49814	-329.92571	1449.28456	-718.27477	-294.89338	1391.39827	-547.63720	-292.30573	1388.03408	-584.21481	-453.35126	1408.88343	-247.24242	-557.06533	1342.45163	-224.87310	-525.24319	1386.52824	-184.10605	-425.86177	1316.62524	-109.29967	-355.05720	1247.16116	-90.95825	-371.70647	1258.33525	-45.99552	-466.88576	1286.73597	-834.86586	-557.22336	1200.60942	-802.74781	-538.95021	1210.05984	-865.02849	-433.00733	1104.55540	-869.39861	-351.81133	1038.57878	-838.81604	-381.06789	1010.43216	-860.02250	-482.88582	940.30915	-464.63888	-505.10958	950.11536	-653.75371	-449.72676	1108.28946	-624.16674	-434.96950	1099.42556	-474.99472	
117	1.16000000	-313.59921	549.09006	-398.48994	-337.28368	498.03052	-371.24613	-290.98175	144.19130	-424.29331	-349.49979	129.20083	-481.90785	-186.37544	45.16735	-397.93571	-137.20556	64.86811	-446.65631	-291.10618	589.69608	-752.61099	-252.58774	512.10769	-769.98759	-299.45475	188.72129	-766.01068	-363.60107	160.72146	-717.68855	-190.99799	93.75979	-780.42556	-147.23590	112.68409	-727.77094	-324.35482	382.56226	-368.49371	-266.72661	509.47048	-402.04854	-252.43726	396.58211	-410.04116	-339.73986	521.96183	-781.11647	-338.77240	399.97345	-789.85547	-395.02218	833.29714	-375.99281	-345.85953	730.29848	-366.20581	-298.06825	730.44775	-396.63568	-346.71293	847.75363	-474.54357	-292.60324	751.34808	-459.31934	-401.72351	889.33492	-732.97836	-337.21854	765.25559	-758.22814	-500.88662	840.98858	-750.17050	-440.22456	712.47226	-740.29521	-389.12571	988.19489	-436.43913	-584.24753	1043.99788	-593.58195	-406.70405	987.32633	-663.11698	-574.84579	1037.86419	-497.52996	-364.03873	1482.63676	-573.50749	-318.54226	1450.59108	-428.99822	-322.31885	1422.73816	-718.55600	-286.15918	1366.05683	-547.22123	-284.02716	1362.13674	-584.83951	-446.38433	1383.23186	-248.48435	-549.30711	1314.55894	-226.96790	-518.84400	1359.98725	-186.24852	-416.64319	1294.10048	-112.35136	-341.24146	1229.61413	-92.24544	-359.68581	1238.15468	-49.34182	-456.08629	1256.27265	-833.28501	-543.72529	1167.84375	-800.67189	-526.11257	1177.79936	-863.27767	-417.38028	1074.85093	-867.73480	-334.22022	1011.52624	-837.33469	-362.99771	982.21333	-857.66276	-471.45690	914.25095	-463.66187	-493.82628	924.23922	-652.75181	-439.77267	1082.93236	-622.49218	-425.18518	1073.40929	-473.45182	
118	1.17000000	-294.56585	524.43345	-399.32239	-317.15927	474.62124	-371.74180	-290.05283	121.04237	-427.54699	-351.92068	102.76972	-483.92923	-184.54952	35.73572	-399.24038	-135.22356	51.52789	-451.22891	-273.55405	567.31395	-752.81501	-235.96654	489.49015	-770.63828	-280.31019	165.67263	-766.95012	-343.93313	138.96767	-717.99492	-172.74680	68.04562	-780.77392	-128.44810	87.21276	-728.89784	-307.30879	358.34417	-368.68249	-246.86885	483.54499	-403.66519	-237.09091	369.75424	-412.19833	-323.19506	498.83748	-781.32724	-321.55399	376.96039	-789.66471	-382.26629	806.71474	-374.27400	-331.04386	704.45639	-365.23508	-283.78264	705.64736	-396.10162	-333.70414	822.87230	-472.41250	-277.06108	727.73147	-457.61792	-390.06937	864.78757	-731.92125	-323.08106	742.05999	-757.59619	-488.25639	814.85653	-750.00210	-425.15326	687.48773	-740.54476	-378.69337	961.55035	-435.02088	-574.25602	1016.48029	-592.43913	-396.79785	960.51838	-661.96339	-565.19837	1010.03607	-496.20851	-355.98809	1455.27605	-573.71311	-310.08354	1424.00149	-429.07520	-314.83396	1394.30795	-718.79539	-277.89094	1339.07428	-546.61480	-276.08028	1334.47425	-584.87532	-439.01294	1354.96420	-249.25559	-540.65716	1283.64593	-228.94672	-511.56634	1330.19866	-187.97906	-406.18319	1267.81572	-116.08557	-324.95220	1209.81227	-93.77998	-346.06784	1213.80564	-54.08938	-444.32502	1223.63432	-831.71603	-528.99946	1132.69085	-798.47810	-512.00694	1143.19233	-861.57002	-400.17466	1043.23253	-865.77785	-315.08670	983.00053	-835.16536	-343.11940	952.41088	-854.58140	-460.79164	887.30186	-462.24420	-483.52282	896.82219	-651.32752	-430.08498	1056.24691	-621.10330	-416.03231	1046.24938	-471.84102	
119	1.18000000	-273.72510	499.31143	-401.01085	-293.52271	451.15817	-372.24243	-297.30915	101.91245	-434.35202	-362.20141	76.67699	-488.37697	-186.40899	36.49284	-401.11552	-139.06669	51.93381	-455.55804	-256.23179	543.84555	-751.98188	-219.00834	466.48691	-771.76878	-263.96781	143.33783	-766.90821	-328.36205	119.54392	-717.70262	-158.72891	47.11365	-781.38065	-112.56024	64.71078	-729.49615	-291.32153	334.75442	-371.36250	-224.66117	456.36640	-407.34034	-223.35658	342.42764	-418.72631	-306.60050	475.11980	-781.18627	-303.98461	353.32850	-789.87344	-370.68956	779.22220	-371.28538	-316.93747	678.10855	-363.07003	-269.40006	680.96523	-393.08662	-322.09384	797.21257	-469.35288	-262.41825	703.45572	-454.89198	-379.36392	839.47718	-730.62262	-309.08710	718.60281	-756.84809	-476.17471	787.45044	-749.69874	-409.87348	661.65487	-740.87742	-369.46772	933.51327	-433.56343	-565.06901	988.01668	-591.30439	-386.45584	933.54193	-660.77917	-556.66811	981.84913	-494.49633	-348.03386	1427.06235	-573.96683	-301.57573	1396.20233	-428.76205	-307.21031	1364.59708	-719.13787	-269.77452	1311.11754	-545.98785	-268.39724	1305.68883	-584.61246	-431.10326	1324.08859	-249.92207	-531.05908	1250.14499	-230.38068	-503.36883	1297.62949	-189.07573	-394.33087	1238.15530	-120.26547	-308.89974	1184.73281	-98.71184	-330.95319	1185.40404	-60.31249	-431.63196	1189.12330	-830.60569	-513.04304	1095.43372	-796.33365	-496.62433	1106.42679	-859.93775	-381.46222	1010.04555	-863.52890	-294.51272	953.24684	-832.34032	-321.54240	921.39410	-851.07464	-451.17573	858.86229	-461.54697	-473.43688	869.63604	-650.60714	-419.96792	1028.59362	-620.43796	-406.99298	1019.08395	-470.90624	
